<svg width="279.32919921875px" height="88.39999999999999px" xmlns="http://www.w3.org/2000/svg" viewBox="110.33540039062501 30.800000000000004 279.32919921875 88.39999999999999" style="background: none;" preserveAspectRatio="xMidYMid"><defs><linearGradient id="editing-outline-gradient" x1="-0.5" x2="1.5" y1="0.5" y2="0.5"><stop offset="0" stop-color="#828282"></stop><stop offset="1" stop-color="#000000"></stop></linearGradient><filter id="editing-outline" x="-100%" y="-100%" width="300%" height="300%"><feMorphology in="SourceGraphic" operator="dilate" radius="4" result="outline"></feMorphology><feComposite operator="out" in="outline" in2="SourceAlpha"></feComposite></filter></defs><g filter="url(#editing-outline)"><g transform="translate(154.70633459091187, 92.51000213623047)"><path d="M22.02-19.93L22.02-19.93L22.02-19.93Q21.20-20.50 20.64-21.09L20.64-21.09L20.64-21.09Q20.09-21.69 19.72-22.39L19.72-22.39L19.72-22.39Q19.35-23.08 19.11-23.90L19.11-23.90L19.11-23.90Q18.86-24.72 18.70-25.71L18.70-25.71L18.70-25.71Q18.12-26.16 16.85-26.28L16.85-26.28L16.85-26.28Q15.58-26.40 14.27-26.40L14.27-26.40L14.27-26.40Q13.20-26.40 12.42-26.36L12.42-26.36L12.42-26.36Q11.64-26.32 11.07-26.32L11.07-26.32L11.07-26.32Q10.70-25.30 10.58-22.82L10.58-22.82L10.58-22.82Q10.46-20.34 10.46-17.14L10.46-17.14L10.46-17.14Q10.46-15.42 10.48-13.61L10.48-13.61L10.48-13.61Q10.50-11.81 10.52-10.04L10.52-10.04L10.52-10.04Q10.54-8.28 10.56-6.62L10.56-6.62L10.56-6.62Q10.58-4.96 10.58-3.53L10.58-3.53L10.58-3.53Q11.81-3.24 12.59-3.01L12.59-3.01L12.59-3.01Q13.37-2.79 14.10-2.64L14.10-2.64L14.10-2.64Q14.84-2.50 15.79-2.40L15.79-2.40L15.79-2.40Q16.73-2.30 18.29-2.21L18.29-2.21L18.29-2.21Q18.37-2.54 18.39-3.63L18.39-3.63L18.39-3.63Q18.41-4.71 18.41-6.15L18.41-6.15L18.41-6.15Q18.41-7.75 18.39-8.81L18.39-8.81L18.39-8.81Q18.37-9.88 18.29-10.95L18.29-10.95L18.29-10.95Q17.75-10.95 17.40-11.05L17.40-11.05L17.40-11.05Q17.06-11.15 16.58-11.28L16.58-11.28L16.58-11.28Q16.11-11.40 15.35-11.52L15.35-11.52L15.35-11.52Q14.60-11.64 13.33-11.73L13.33-11.73L13.33-11.73Q13.49-12.01 13.74-12.48L13.74-12.48L13.74-12.48Q13.98-12.96 14.23-13.49L14.23-13.49L14.23-13.49Q14.47-14.02 14.66-14.49L14.66-14.49L14.66-14.49Q14.84-14.96 14.92-15.29L14.92-15.29L14.92-15.29Q16.48-14.96 17.98-14.80L17.98-14.80L17.98-14.80Q19.48-14.64 20.83-14.64L20.83-14.64L20.83-14.64Q22.22-14.64 23.37-14.82L23.37-14.82L23.37-14.82Q24.52-15.01 25.30-15.46L25.30-15.46L25.30-15.46Q25.17-15.13 24.87-14.53L24.87-14.53L24.87-14.53Q24.56-13.94 24.23-13.26L24.23-13.26L24.23-13.26Q23.90-12.59 23.66-11.93L23.66-11.93L23.66-11.93Q23.41-11.28 23.41-10.78L23.41-10.78L23.41-10.78Q23.53-9.06 23.62-7.46L23.62-7.46L23.62-7.46Q23.70-5.86 23.80-4.57L23.80-4.57L23.80-4.57Q23.90-3.28 23.98-2.42L23.98-2.42L23.98-2.42Q24.07-1.56 24.19-1.31L24.19-1.31L24.19-1.31Q22.26-0.86 20.54 0.10L20.54 0.10L20.54 0.10Q18.82 1.07 16.52 2.99L16.52 2.99L16.52 2.99Q14.72 1.89 12.67 1.11L12.67 1.11L12.67 1.11Q10.62 0.33 8.63-0.27L8.63-0.27L8.63-0.27Q6.64-0.86 4.82-1.31L4.82-1.31L4.82-1.31Q2.99-1.76 1.64-2.21L1.64-2.21L1.64-2.21Q2.30-2.38 2.77-3.01L2.77-3.01L2.77-3.01Q3.24-3.65 3.55-4.59L3.55-4.59L3.55-4.59Q3.85-5.54 4.02-6.70L4.02-6.70L4.02-6.70Q4.18-7.87 4.18-9.06L4.18-9.06L4.18-9.06Q4.18-10.91 3.79-12.59L3.79-12.59L3.79-12.59Q3.40-14.27 2.71-15.13L2.71-15.13L2.71-15.13Q3.36-15.79 3.79-16.87L3.79-16.87L3.79-16.87Q4.22-17.96 4.47-19.21L4.47-19.21L4.47-19.21Q4.71-20.46 4.80-21.77L4.80-21.77L4.80-21.77Q4.88-23.08 4.88-24.23L4.88-24.23L4.88-24.23Q4.88-25.17 4.84-25.87L4.84-25.87L4.84-25.87Q4.80-26.57 4.76-26.94L4.76-26.94L4.76-26.94Q3.81-27.27 2.81-28.29L2.81-28.29L2.81-28.29Q1.80-29.32 1.31-30.50L1.31-30.50L1.31-30.50Q3.94-30.22 6.29-30.11L6.29-30.11L6.29-30.11Q8.65-30.01 10.74-30.01L10.74-30.01L10.74-30.01Q15.29-30.01 18.20-30.30L18.20-30.30L18.20-30.30Q21.12-30.59 22.71-30.59L22.71-30.59L22.71-30.59Q23.04-30.59 23.29-30.57L23.29-30.57L23.29-30.57Q23.53-30.55 23.74-30.50L23.74-30.50L23.74-30.50Q23.57-30.14 23.39-29.25L23.39-29.25L23.39-29.25Q23.21-28.37 23.00-27.29L23.00-27.29L23.00-27.29Q22.80-26.20 22.63-24.99L22.63-24.99L22.63-24.99Q22.47-23.78 22.32-22.73L22.32-22.73L22.32-22.73Q22.18-21.69 22.10-20.91L22.10-20.91L22.10-20.91Q22.02-20.13 22.02-19.93ZM34.15-8.00L34.07-3.85L34.07-3.85Q34.97-3.77 35.94-3.73L35.94-3.73L35.94-3.73Q36.90-3.69 38.34-3.36L38.34-3.36L38.34-9.14L38.34-9.14Q37.15-8.69 36.04-8.38L36.04-8.38L36.04-8.38Q34.93-8.08 34.15-8.00L34.15-8.00ZM44.65-16.93L44.65-16.93L44.65-16.93Q43.99-15.99 43.81-14.43L43.81-14.43L43.81-14.43Q43.62-12.87 43.62-9.88L43.62-9.88L43.62-9.88Q43.62-7.91 43.73-6.74L43.73-6.74L43.73-6.74Q43.83-5.58 44.03-4.90L44.03-4.90L44.03-4.90Q44.24-4.22 44.61-3.96L44.61-3.96L44.61-3.96Q44.98-3.69 45.51-3.57L45.51-3.57L45.51-3.12L45.51-3.12Q44.94-2.91 44.30-2.40L44.30-2.40L44.30-2.40Q43.67-1.89 43.05-1.27L43.05-1.27L43.05-1.27Q42.44-0.66 41.94 0L41.94 0L41.94 0Q41.45 0.66 41.21 1.15L41.21 1.15L41.21 1.15Q40.34 0.57 39.65-0.37L39.65-0.37L39.65-0.37Q38.95-1.31 38.54-2.25L38.54-2.25L35.71 1.15L35.71 1.15Q34.15 0.21 32.29-0.29L32.29-0.29L32.29-0.29Q30.42-0.78 28.04-0.82L28.04-0.82L28.04-0.82Q28.45-1.89 28.54-3.51L28.54-3.51L28.54-3.51Q28.62-5.13 28.62-6.77L28.62-6.77L28.62-6.77Q28.62-7.75 28.50-8.63L28.50-8.63L28.50-8.63Q28.37-9.51 28.09-10.21L28.09-10.21L28.09-10.21Q28.99-10.09 30.05-10.09L30.05-10.09L30.05-10.09Q31.20-10.09 32.41-10.19L32.41-10.19L32.41-10.19Q33.62-10.29 34.73-10.50L34.73-10.50L34.73-10.50Q35.83-10.70 36.76-10.97L36.76-10.97L36.76-10.97Q37.68-11.23 38.29-11.56L38.29-11.56L38.29-15.62L38.29-15.62Q36.90-15.01 35.38-14.60L35.38-14.60L35.38-14.60Q33.87-14.19 32.88-14.19L32.88-14.19L32.88-14.19Q32.19-14.19 31.59-14.33L31.59-14.33L31.59-14.33Q31.00-14.47 30.50-14.90L30.50-14.90L30.50-14.90Q30.01-15.33 29.62-16.11L29.62-16.11L29.62-16.11Q29.23-16.89 28.95-18.12L28.95-18.12L28.95-18.12Q29.19-18.12 29.29-18.10L29.29-18.10L29.29-18.10Q29.40-18.08 29.89-18.08L29.89-18.08L29.89-18.08Q32.84-18.08 34.97-18.61L34.97-18.61L34.97-18.61Q37.11-19.15 38.29-19.84L38.29-19.84L38.29-19.84Q39.65-18.37 41.10-17.65L41.10-17.65L41.10-17.65Q42.56-16.93 44.65-16.93ZM69.04 3.65L68.80 3.40L68.80 3.40Q69.04 2.58 69.25 1.37L69.25 1.37L69.25 1.37Q69.45 0.16 69.58-1.05L69.58-1.05L69.58-1.05Q69.70-2.25 69.78-3.28L69.78-3.28L69.78-3.28Q69.86-4.31 69.86-4.76L69.86-4.76L69.86-4.76Q69.86-7.09 69.84-9.43L69.84-9.43L69.84-9.43Q69.82-11.77 69.82-14.10L69.82-14.10L69.29-14.68L64.70-12.71L64.70-12.71Q64.66-11.81 64.66-10.33L64.66-10.33L64.66-10.33Q64.66-8.86 64.66-7.34L64.66-7.34L64.66-3.61L64.66-3.61Q64.66-1.03 65.76-0.61L65.76-0.61L65.76 0L58.47 0L58.47-0.61L58.47-0.61Q58.96-0.82 59.27-1.46L59.27-1.46L59.27-1.46Q59.57-2.09 59.57-3.24L59.57-3.24L59.57-14.10L59.04-14.68L54.49-12.71L54.49-3.61L54.49-3.61Q54.49-1.03 55.60-0.61L55.60-0.61L55.60 0L48.05 0L48.05-0.61L48.05-0.61Q48.54-0.82 48.85-1.46L48.85-1.46L48.85-1.46Q49.16-2.09 49.16-3.24L49.16-3.24L49.16-17.55L47.64-18.20L47.64-18.66L47.64-18.66Q49.08-18.86 50.76-19.21L50.76-19.21L50.76-19.21Q52.44-19.56 53.75-19.89L53.75-19.89L54.49-18.66L54.49-15.29L54.49-15.29Q56.09-16.44 57.38-17.57L57.38-17.57L57.38-17.57Q58.67-18.70 60.02-20.25L60.02-20.25L60.02-20.25Q60.72-19.60 61.30-19.09L61.30-19.09L61.30-19.09Q61.87-18.57 62.46-18.16L62.46-18.16L62.46-18.16Q63.06-17.75 63.71-17.36L63.71-17.36L63.71-17.36Q64.37-16.97 65.23-16.56L65.23-16.56L64.98-15.46L64.98-15.46Q66.50-16.56 67.73-17.67L67.73-17.67L67.73-17.67Q68.96-18.78 70.27-20.25L70.27-20.25L70.27-20.25Q70.97-19.60 71.55-19.09L71.55-19.09L71.55-19.09Q72.12-18.57 72.71-18.16L72.71-18.16L72.71-18.16Q73.31-17.75 73.96-17.36L73.96-17.36L73.96-17.36Q74.62-16.97 75.48-16.56L75.48-16.56L75.48-16.56Q75.32-15.99 75.21-15.35L75.21-15.35L75.21-15.35Q75.11-14.72 75.05-13.74L75.05-13.74L75.05-13.74Q74.99-12.75 74.95-11.32L74.95-11.32L74.95-11.32Q74.91-9.88 74.91-7.75L74.91-7.75L74.91-7.75Q74.91-5.95 74.93-4.78L74.93-4.78L74.93-4.78Q74.95-3.61 74.99-2.87L74.99-2.87L74.99-2.87Q75.03-2.13 75.11-1.66L75.11-1.66L75.11-1.66Q75.19-1.19 75.28-0.78L75.28-0.78L75.28-0.78Q74.46-0.49 73.62 0L73.62 0L73.62 0Q72.78 0.49 71.93 1.11L71.93 1.11L71.93 1.11Q71.09 1.72 70.36 2.38L70.36 2.38L70.36 2.38Q69.62 3.03 69.04 3.65L69.04 3.65ZM87.08 1.31L87.08 1.31L87.08 1.31Q86.31 0.74 85.16 0.25L85.16 0.25L85.16 0.25Q84.01-0.25 82.80-0.59L82.80-0.59L82.80-0.59Q81.59-0.94 80.46-1.15L80.46-1.15L80.46-1.15Q79.34-1.35 78.60-1.35L78.60-1.35L78.60-1.35Q78.92-1.89 79.17-2.85L79.17-2.85L79.17-2.85Q79.42-3.81 79.56-4.94L79.56-4.94L79.56-4.94Q79.70-6.07 79.77-7.26L79.77-7.26L79.77-7.26Q79.83-8.45 79.83-9.43L79.83-9.43L79.83-9.43Q79.83-11.93 79.52-13.59L79.52-13.59L79.52-13.59Q79.21-15.25 78.92-16.20L78.92-16.20L78.92-16.20Q80.69-16.52 82.14-17.47L82.14-17.47L82.14-17.47Q83.60-18.41 85.03-19.84L85.03-19.84L85.03-19.84Q86.72-19.52 89.17-19.29L89.17-19.29L89.17-19.29Q91.64-19.07 94.05-18.98L94.05-18.98L94.05-18.98Q93.93-18.25 93.93-17.14L93.93-17.14L93.93-17.14Q93.93-16.28 94.01-15.27L94.01-15.27L94.01-15.27Q94.09-14.27 94.22-13.28L94.22-13.28L94.22-13.28Q94.34-12.30 94.55-11.40L94.55-11.40L94.55-11.40Q94.75-10.50 95.00-9.84L95.00-9.84L95.00-9.84Q92.50-9.63 89.91-9.29L89.91-9.29L89.91-9.29Q87.33-8.94 84.87-8.53L84.87-8.53L84.87-8.53Q84.83-7.34 84.71-6.19L84.71-6.19L84.71-6.19Q84.58-5.04 84.50-4.18L84.50-4.18L84.50-4.18Q84.99-3.98 85.75-3.81L85.75-3.81L85.75-3.81Q86.51-3.65 87.37-3.51L87.37-3.51L87.37-3.51Q88.23-3.36 89.05-3.26L89.05-3.26L89.05-3.26Q89.87-3.16 90.45-3.12L90.45-3.12L90.45-3.12Q90.65-4.39 91.45-5.29L91.45-5.29L91.45-5.29Q92.25-6.19 94.18-6.77L94.18-6.77L94.18-6.77Q94.14-6.27 94.14-5.80L94.14-5.80L94.14-5.80Q94.14-5.33 94.14-4.88L94.14-4.88L94.14-4.88Q94.14-3.49 94.24-2.69L94.24-2.69L94.24-2.69Q94.34-1.89 94.63-1.11L94.63-1.11L94.63-1.11Q93.85-1.03 92.78-0.80L92.78-0.80L92.78-0.80Q91.72-0.57 90.65-0.23L90.65-0.23L90.65-0.23Q89.59 0.12 88.62 0.51L88.62 0.51L88.62 0.51Q87.66 0.90 87.08 1.31ZM84.46-16.15L84.46-16.15L84.46-16.15Q84.67-14.43 84.77-13.12L84.77-13.12L84.77-13.12Q84.87-11.81 84.91-10.70L84.91-10.70L89.71-11.89L89.71-11.89Q89.50-12.71 89.36-13.61L89.36-13.61L89.36-13.61Q89.22-14.51 89.22-15.46L89.22-15.46L89.22-15.46Q88.27-15.46 86.94-15.64L86.94-15.64L86.94-15.64Q85.61-15.83 84.46-16.15ZM114.64-4.63L114.64-4.63L114.64-4.63Q115.37-4.22 115.99-3.90L115.99-3.90L115.99-3.90Q116.60-3.57 117.24-3.30L117.24-3.30L117.24-3.30Q117.88-3.03 118.61-2.83L118.61-2.83L118.61-2.83Q119.35-2.62 120.29-2.46L120.29-2.46L120.29-2.46Q122.02-3.32 123.04-3.59L123.04-3.59L123.04-3.59Q124.07-3.85 124.39-4.06L124.39-4.06L124.39-4.06Q124.48-8.04 124.54-12.40L124.54-12.40L124.54-12.40Q124.60-16.77 124.60-20.71L124.60-20.71L124.60-20.71Q124.60-21.73 124.60-22.73L124.60-22.73L124.60-22.73Q124.60-23.74 124.52-24.68L124.52-24.68L124.52-24.68Q123.78-25.09 123.16-25.42L123.16-25.42L123.16-25.42Q122.55-25.75 121.91-26.01L121.91-26.01L121.91-26.01Q121.28-26.28 120.56-26.49L120.56-26.49L120.56-26.49Q119.84-26.69 118.90-26.86L118.90-26.86L118.90-26.86Q117.18-25.99 116.13-25.67L116.13-25.67L116.13-25.67Q115.09-25.34 114.76-25.13L114.76-25.13L114.76-25.13Q114.72-24.11 114.68-22.65L114.68-22.65L114.68-22.65Q114.64-21.20 114.62-19.52L114.62-19.52L114.62-19.52Q114.59-17.84 114.59-15.99L114.59-15.99L114.59-15.99Q114.59-14.15 114.59-12.38L114.59-12.38L114.59-12.38Q114.59-10.54 114.62-8.41L114.62-8.41L114.62-8.41Q114.64-6.27 114.64-4.63ZM107.26-14.84L107.26-14.84L107.26-14.84Q107.79-15.42 108.22-16.30L108.22-16.30L108.22-16.30Q108.65-17.18 108.98-18.22L108.98-18.22L108.98-18.22Q109.31-19.27 109.49-20.42L109.49-20.42L109.49-20.42Q109.67-21.57 109.67-22.67L109.67-22.67L109.67-22.67Q109.67-24.56 109.10-26.24L109.10-26.24L109.10-26.24Q108.53-27.92 107.21-28.70L107.21-28.70L107.21-28.70Q108.49-28.78 109.98-29.03L109.98-29.03L109.98-29.03Q111.48-29.27 113.00-29.64L113.00-29.64L113.00-29.64Q114.51-30.01 115.91-30.44L115.91-30.44L115.91-30.44Q117.30-30.87 118.37-31.37L118.37-31.37L118.37-31.37Q119.72-31.16 121.59-30.69L121.59-30.69L121.59-30.69Q123.45-30.22 125.30-29.73L125.30-29.73L125.30-29.73Q127.14-29.23 128.68-28.82L128.68-28.82L128.68-28.82Q130.22-28.41 130.91-28.37L130.91-28.37L130.91-28.37Q130.34-27.43 130.09-26.01L130.09-26.01L130.09-26.01Q129.85-24.60 129.85-23.08L129.85-23.08L129.85-23.08Q129.85-20.79 130.42-18.51L130.42-18.51L130.42-18.51Q131.00-16.24 132.06-14.80L132.06-14.80L132.06-14.80Q131.04-13.53 130.38-11.34L130.38-11.34L130.38-11.34Q129.72-9.14 129.72-6.81L129.72-6.81L129.72-6.81Q129.72-4.92 130.30-3.28L130.30-3.28L130.30-3.28Q130.87-1.64 132.18-0.82L132.18-0.82L132.18-0.82Q130.91-0.74 129.38-0.49L129.38-0.49L129.38-0.49Q127.84-0.25 126.30 0.12L126.30 0.12L126.30 0.12Q124.76 0.49 123.33 0.92L123.33 0.92L123.33 0.92Q121.89 1.35 120.87 1.84L120.87 1.84L120.87 1.84Q119.51 1.68 117.67 1.23L117.67 1.23L117.67 1.23Q115.82 0.78 114.00 0.29L114.00 0.29L114.00 0.29Q112.18-0.21 110.66-0.64L110.66-0.64L110.66-0.64Q109.14-1.07 108.49-1.15L108.49-1.15L108.49-1.15Q109.06-1.68 109.29-2.89L109.29-2.89L109.29-2.89Q109.51-4.10 109.51-5.66L109.51-5.66L109.51-5.66Q109.51-7.09 109.33-8.67L109.33-8.67L109.33-8.67Q109.14-10.25 108.83-11.58L108.83-11.58L108.83-11.58Q108.53-12.92 108.12-13.82L108.12-13.82L108.12-13.82Q107.71-14.72 107.26-14.84ZM144.11 1.15L143.70 1.15L143.70 1.15Q142.52 0.29 140.75-0.49L140.75-0.49L140.75-0.49Q138.99-1.27 137.10-1.72L137.10-1.72L137.10-1.72Q137.14-2.21 137.19-2.85L137.19-2.85L137.19-2.85Q137.23-3.49 137.25-4.16L137.25-4.16L137.25-4.16Q137.27-4.84 137.29-5.47L137.29-5.47L137.29-5.47Q137.31-6.11 137.31-6.56L137.31-6.56L137.31-6.56Q137.31-10.29 136.76-12.83L136.76-12.83L136.76-12.83Q136.20-15.38 135.38-16.73L135.38-16.73L134.19-16.97L134.19-17.67L134.19-17.67Q134.89-17.75 135.87-17.98L135.87-17.98L135.87-17.98Q136.86-18.20 137.82-18.51L137.82-18.51L137.82-18.51Q138.78-18.82 139.60-19.17L139.60-19.17L139.60-19.17Q140.42-19.52 140.83-19.84L140.83-19.84L140.83-19.84Q141.82-18.41 142.21-15.13L142.21-15.13L142.21-15.13Q142.60-11.85 142.60-7.42L142.60-7.42L142.60-7.42Q142.60-6.56 142.60-5.68L142.60-5.68L142.60-5.68Q142.60-4.80 142.56-3.85L142.56-3.85L144.61-2.75L144.85-2.75L144.85-2.75Q145.43-3.73 145.86-5.23L145.86-5.23L145.86-5.23Q146.29-6.72 146.60-8.36L146.60-8.36L146.60-8.36Q146.90-10.00 147.07-11.58L147.07-11.58L147.07-11.58Q147.23-13.16 147.23-14.35L147.23-14.35L147.23-14.35Q147.23-15.99 146.88-16.81L146.88-16.81L146.88-16.81Q146.53-17.63 145.84-17.96L145.84-17.96L145.88-18.61L145.88-18.61Q147.48-18.74 149.12-19.04L149.12-19.04L149.12-19.04Q150.76-19.35 152.36-19.84L152.36-19.84L152.36-19.84Q152.27-19.72 152.27-19.56L152.27-19.56L152.27-19.56Q152.27-19.39 152.27-19.19L152.27-19.19L152.27-19.19Q152.27-17.88 152.44-16.71L152.44-16.71L152.44-16.71Q152.60-15.54 153.18-14.92L153.18-14.92L149.20-2.79L144.11 1.15ZM163.84 1.31L163.84 1.31L163.84 1.31Q163.06 0.74 161.91 0.25L161.91 0.25L161.91 0.25Q160.76-0.25 159.55-0.59L159.55-0.59L159.55-0.59Q158.34-0.94 157.21-1.15L157.21-1.15L157.21-1.15Q156.09-1.35 155.35-1.35L155.35-1.35L155.35-1.35Q155.68-1.89 155.92-2.85L155.92-2.85L155.92-2.85Q156.17-3.81 156.31-4.94L156.31-4.94L156.31-4.94Q156.46-6.07 156.52-7.26L156.52-7.26L156.52-7.26Q156.58-8.45 156.58-9.43L156.58-9.43L156.58-9.43Q156.58-11.93 156.27-13.59L156.27-13.59L156.27-13.59Q155.96-15.25 155.68-16.20L155.68-16.20L155.68-16.20Q157.44-16.52 158.90-17.47L158.90-17.47L158.90-17.47Q160.35-18.41 161.79-19.84L161.79-19.84L161.79-19.84Q163.47-19.52 165.93-19.29L165.93-19.29L165.93-19.29Q168.39-19.07 170.81-18.98L170.81-18.98L170.81-18.98Q170.68-18.25 170.68-17.14L170.68-17.14L170.68-17.14Q170.68-16.28 170.76-15.27L170.76-15.27L170.76-15.27Q170.85-14.27 170.97-13.28L170.97-13.28L170.97-13.28Q171.09-12.30 171.30-11.40L171.30-11.40L171.30-11.40Q171.50-10.50 171.75-9.84L171.75-9.84L171.75-9.84Q169.25-9.63 166.66-9.29L166.66-9.29L166.66-9.29Q164.08-8.94 161.62-8.53L161.62-8.53L161.62-8.53Q161.58-7.34 161.46-6.19L161.46-6.19L161.46-6.19Q161.33-5.04 161.25-4.18L161.25-4.18L161.25-4.18Q161.74-3.98 162.50-3.81L162.50-3.81L162.50-3.81Q163.26-3.65 164.12-3.51L164.12-3.51L164.12-3.51Q164.98-3.36 165.80-3.26L165.80-3.26L165.80-3.26Q166.62-3.16 167.20-3.12L167.20-3.12L167.20-3.12Q167.40-4.39 168.20-5.29L168.20-5.29L168.20-5.29Q169.00-6.19 170.93-6.77L170.93-6.77L170.93-6.77Q170.89-6.27 170.89-5.80L170.89-5.80L170.89-5.80Q170.89-5.33 170.89-4.88L170.89-4.88L170.89-4.88Q170.89-3.49 170.99-2.69L170.99-2.69L170.99-2.69Q171.09-1.89 171.38-1.11L171.38-1.11L171.38-1.11Q170.60-1.03 169.53-0.80L169.53-0.80L169.53-0.80Q168.47-0.57 167.40-0.23L167.40-0.23L167.40-0.23Q166.34 0.12 165.37 0.51L165.37 0.51L165.37 0.51Q164.41 0.90 163.84 1.31ZM161.21-16.15L161.21-16.15L161.21-16.15Q161.42-14.43 161.52-13.12L161.52-13.12L161.52-13.12Q161.62-11.81 161.66-10.70L161.66-10.70L166.46-11.89L166.46-11.89Q166.25-12.71 166.11-13.61L166.11-13.61L166.11-13.61Q165.97-14.51 165.97-15.46L165.97-15.46L165.97-15.46Q165.02-15.46 163.69-15.64L163.69-15.64L163.69-15.64Q162.36-15.83 161.21-16.15ZM181.26-18.66L181.26-13.16L181.26-13.16Q182.20-14.68 183.02-16.36L183.02-16.36L183.02-16.36Q183.84-18.04 184.54-19.93L184.54-19.93L184.54-19.93Q185.32-19.43 186.75-18.92L186.75-18.92L186.75-18.92Q188.19-18.41 189.91-18.00L189.91-18.00L189.91-18.00Q189.71-16.28 189.17-14.86L189.17-14.86L189.17-14.86Q188.64-13.45 187.82-12.51L187.82-12.51L185.07-13.94L184.58-13.94L181.26-9.27L181.26-3.61L181.26-3.61Q181.26-2.17 181.77-1.54L181.77-1.54L181.77-1.54Q182.29-0.90 183.60-0.70L183.60-0.70L183.60 0L174.82 0L174.82-0.61L174.82-0.61Q175.93-1.03 175.93-3.24L175.93-3.24L175.93-17.55L174.41-18.20L174.41-18.66L174.41-18.66Q175.85-18.86 177.53-19.21L177.53-19.21L177.53-19.21Q179.21-19.56 180.52-19.89L180.52-19.89L181.26-18.66Z" fill="url(#editing-outline-gradient)"></path></g></g><style>text {
  font-size: 64px;
  font-family: Arial Black;
  dominant-baseline: central;
  text-anchor: middle;
}</style></svg>