<svg width="978.33125px" height="274.4px" xmlns="http://www.w3.org/2000/svg" viewBox="-239.16562499999998 -62.19999999999999 978.33125 274.4" style="background: none;" preserveAspectRatio="xMidYMid"><defs><linearGradient id="editing-outline-gradient" x1="-0.5" x2="1.5" y1="0.5" y2="0.5"><stop offset="0" stop-color="#828282"></stop><stop offset="1" stop-color="#000000"></stop></linearGradient><filter id="editing-outline" x="-100%" y="-100%" width="300%" height="300%"><feMorphology in="SourceGraphic" operator="dilate" radius="4" result="outline"></feMorphology><feComposite operator="out" in="outline" in2="SourceAlpha"></feComposite></filter></defs><g filter="url(#editing-outline)"><g transform="translate(-104.46002149581909, 139.90499877929688)"><path d="M81.62-73.87L81.62-73.87L81.62-73.87Q78.58-76 76.53-78.20L76.53-78.20L76.53-78.20Q74.48-80.41 73.11-82.99L73.11-82.99L73.11-82.99Q71.74-85.58 70.83-88.62L70.83-88.62L70.83-88.62Q69.92-91.66 69.31-95.30L69.31-95.30L69.31-95.30Q67.18-96.98 62.47-97.43L62.47-97.43L62.47-97.43Q57.76-97.89 52.90-97.89L52.90-97.89L52.90-97.89Q48.94-97.89 46.06-97.74L46.06-97.74L46.06-97.74Q43.17-97.58 41.04-97.58L41.04-97.58L41.04-97.58Q39.67-93.78 39.22-84.59L39.22-84.59L39.22-84.59Q38.76-75.39 38.76-63.54L38.76-63.54L38.76-63.54Q38.76-57.15 38.84-50.46L38.84-50.46L38.84-50.46Q38.91-43.78 38.99-37.24L38.99-37.24L38.99-37.24Q39.06-30.70 39.14-24.55L39.14-24.55L39.14-24.55Q39.22-18.39 39.22-13.07L39.22-13.07L39.22-13.07Q43.78-12.01 46.66-11.17L46.66-11.17L46.66-11.17Q49.55-10.34 52.29-9.80L52.29-9.80L52.29-9.80Q55.02-9.27 58.52-8.89L58.52-8.89L58.52-8.89Q62.02-8.51 67.79-8.21L67.79-8.21L67.79-8.21Q68.10-9.42 68.17-13.45L68.17-13.45L68.17-13.45Q68.25-17.48 68.25-22.80L68.25-22.80L68.25-22.80Q68.25-28.73 68.17-32.68L68.17-32.68L68.17-32.68Q68.10-36.63 67.79-40.58L67.79-40.58L67.79-40.58Q65.82-40.58 64.52-40.96L64.52-40.96L64.52-40.96Q63.23-41.34 61.48-41.80L61.48-41.80L61.48-41.80Q59.74-42.26 56.92-42.71L56.92-42.71L56.92-42.71Q54.11-43.17 49.40-43.47L49.40-43.47L49.40-43.47Q50.01-44.54 50.92-46.28L50.92-46.28L50.92-46.28Q51.83-48.03 52.74-50.01L52.74-50.01L52.74-50.01Q53.66-51.98 54.34-53.73L54.34-53.73L54.34-53.73Q55.02-55.48 55.33-56.70L55.33-56.70L55.33-56.70Q61.10-55.48 66.65-54.87L66.65-54.87L66.65-54.87Q72.20-54.26 77.22-54.26L77.22-54.26L77.22-54.26Q82.38-54.26 86.64-54.95L86.64-54.95L86.64-54.95Q90.90-55.63 93.78-57.30L93.78-57.30L93.78-57.30Q93.33-56.09 92.19-53.88L92.19-53.88L92.19-53.88Q91.05-51.68 89.83-49.17L89.83-49.17L89.83-49.17Q88.62-46.66 87.70-44.23L87.70-44.23L87.70-44.23Q86.79-41.80 86.79-39.98L86.79-39.98L86.79-39.98Q87.25-33.59 87.55-27.66L87.55-27.66L87.55-27.66Q87.86-21.74 88.24-16.95L88.24-16.95L88.24-16.95Q88.62-12.16 88.92-8.97L88.92-8.97L88.92-8.97Q89.22-5.78 89.68-4.86L89.68-4.86L89.68-4.86Q82.54-3.19 76.15 0.38L76.15 0.38L76.15 0.38Q69.77 3.95 61.26 11.10L61.26 11.10L61.26 11.10Q54.57 6.99 46.97 4.10L46.97 4.10L46.97 4.10Q39.37 1.22 32.00-0.99L32.00-0.99L32.00-0.99Q24.62-3.19 17.86-4.86L17.86-4.86L17.86-4.86Q11.10-6.54 6.08-8.21L6.08-8.21L6.08-8.21Q8.51-8.82 10.26-11.17L10.26-11.17L10.26-11.17Q12.01-13.53 13.15-17.02L13.15-17.02L13.15-17.02Q14.29-20.52 14.90-24.85L14.90-24.85L14.90-24.85Q15.50-29.18 15.50-33.59L15.50-33.59L15.50-33.59Q15.50-40.43 14.06-46.66L14.06-46.66L14.06-46.66Q12.62-52.90 10.03-56.09L10.03-56.09L10.03-56.09Q12.46-58.52 14.06-62.55L14.06-62.55L14.06-62.55Q15.66-66.58 16.57-71.21L16.57-71.21L16.57-71.21Q17.48-75.85 17.78-80.71L17.78-80.71L17.78-80.71Q18.09-85.58 18.09-89.83L18.09-89.83L18.09-89.83Q18.09-93.33 17.94-95.91L17.94-95.91L17.94-95.91Q17.78-98.50 17.63-99.86L17.63-99.86L17.63-99.86Q14.14-101.08 10.41-104.88L10.41-104.88L10.41-104.88Q6.69-108.68 4.86-113.09L4.86-113.09L4.86-113.09Q14.59-112.02 23.33-111.64L23.33-111.64L23.33-111.64Q32.07-111.26 39.82-111.26L39.82-111.26L39.82-111.26Q56.70-111.26 67.49-112.33L67.49-112.33L67.49-112.33Q78.28-113.39 84.21-113.39L84.21-113.39L84.21-113.39Q85.42-113.39 86.34-113.32L86.34-113.32L86.34-113.32Q87.25-113.24 88.01-113.09L88.01-113.09L88.01-113.09Q87.40-111.72 86.72-108.45L86.72-108.45L86.72-108.45Q86.03-105.18 85.27-101.16L85.27-101.16L85.27-101.16Q84.51-97.13 83.90-92.64L83.90-92.64L83.90-92.64Q83.30-88.16 82.76-84.28L82.76-84.28L82.76-84.28Q82.23-80.41 81.93-77.52L81.93-77.52L81.93-77.52Q81.62-74.63 81.62-73.87ZM126.62-29.64L126.31-14.29L126.31-14.29Q129.66-13.98 133.23-13.83L133.23-13.83L133.23-13.83Q136.80-13.68 142.12-12.46L142.12-12.46L142.12-33.90L142.12-33.90Q137.71-32.22 133.61-31.08L133.61-31.08L133.61-31.08Q129.50-29.94 126.62-29.64L126.62-29.64ZM165.53-62.78L165.53-62.78L165.53-62.78Q163.10-59.28 162.41-53.50L162.41-53.50L162.41-53.50Q161.73-47.73 161.73-36.63L161.73-36.63L161.73-36.63Q161.73-29.34 162.11-25.00L162.11-25.00L162.11-25.00Q162.49-20.67 163.25-18.16L163.25-18.16L163.25-18.16Q164.01-15.66 165.38-14.67L165.38-14.67L165.38-14.67Q166.74-13.68 168.72-13.22L168.72-13.22L168.72-11.55L168.72-11.55Q166.59-10.79 164.24-8.89L164.24-8.89L164.24-8.89Q161.88-6.99 159.60-4.71L159.60-4.71L159.60-4.71Q157.32-2.43 155.50 0L155.50 0L155.50 0Q153.67 2.43 152.76 4.26L152.76 4.26L152.76 4.26Q149.57 2.13 146.98-1.37L146.98-1.37L146.98-1.37Q144.40-4.86 142.88-8.36L142.88-8.36L132.39 4.26L132.39 4.26Q126.62 0.76 119.70-1.06L119.70-1.06L119.70-1.06Q112.78-2.89 103.97-3.04L103.97-3.04L103.97-3.04Q105.49-6.99 105.79-13.00L105.79-13.00L105.79-13.00Q106.10-19 106.10-25.08L106.10-25.08L106.10-25.08Q106.10-28.73 105.64-32.00L105.64-32.00L105.64-32.00Q105.18-35.26 104.12-37.85L104.12-37.85L104.12-37.85Q107.46-37.39 111.42-37.39L111.42-37.39L111.42-37.39Q115.67-37.39 120.16-37.77L120.16-37.77L120.16-37.77Q124.64-38.15 128.74-38.91L128.74-38.91L128.74-38.91Q132.85-39.67 136.27-40.66L136.27-40.66L136.27-40.66Q139.69-41.65 141.97-42.86L141.97-42.86L141.97-57.91L141.97-57.91Q136.80-55.63 131.18-54.11L131.18-54.11L131.18-54.11Q125.55-52.59 121.90-52.59L121.90-52.59L121.90-52.59Q119.32-52.59 117.12-53.12L117.12-53.12L117.12-53.12Q114.91-53.66 113.09-55.25L113.09-55.25L113.09-55.25Q111.26-56.85 109.82-59.74L109.82-59.74L109.82-59.74Q108.38-62.62 107.31-67.18L107.31-67.18L107.31-67.18Q108.22-67.18 108.60-67.11L108.60-67.11L108.60-67.11Q108.98-67.03 110.81-67.03L110.81-67.03L110.81-67.03Q121.75-67.03 129.66-69.01L129.66-69.01L129.66-69.01Q137.56-70.98 141.97-73.57L141.97-73.57L141.97-73.57Q146.98-68.10 152.38-65.44L152.38-65.44L152.38-65.44Q157.78-62.78 165.53-62.78ZM255.97 13.53L255.06 12.62L255.06 12.62Q255.97 9.58 256.73 5.09L256.73 5.09L256.73 5.09Q257.49 0.61 257.94-3.88L257.94-3.88L257.94-3.88Q258.40-8.36 258.70-12.16L258.70-12.16L258.70-12.16Q259.01-15.96 259.01-17.63L259.01-17.63L259.01-17.63Q259.01-26.30 258.93-34.96L258.93-34.96L258.93-34.96Q258.86-43.62 258.86-52.29L258.86-52.29L256.88-54.42L239.86-47.12L239.86-47.12Q239.70-43.78 239.70-38.30L239.70-38.30L239.70-38.30Q239.70-32.83 239.70-27.21L239.70-27.21L239.70-13.38L239.70-13.38Q239.70-3.80 243.81-2.28L243.81-2.28L243.81 0L216.75 0L216.75-2.28L216.75-2.28Q218.58-3.04 219.72-5.40L219.72-5.40L219.72-5.40Q220.86-7.75 220.86-12.01L220.86-12.01L220.86-52.29L218.88-54.42L202.01-47.12L202.01-13.38L202.01-13.38Q202.01-3.80 206.11-2.28L206.11-2.28L206.11 0L178.14 0L178.14-2.28L178.14-2.28Q179.97-3.04 181.11-5.40L181.11-5.40L181.11-5.40Q182.25-7.75 182.25-12.01L182.25-12.01L182.25-65.06L176.62-67.49L176.62-69.16L176.62-69.16Q181.94-69.92 188.18-71.21L188.18-71.21L188.18-71.21Q194.41-72.50 199.27-73.72L199.27-73.72L202.01-69.16L202.01-56.70L202.01-56.70Q207.94-60.95 212.72-65.13L212.72-65.13L212.72-65.13Q217.51-69.31 222.53-75.09L222.53-75.09L222.53-75.09Q225.11-72.66 227.24-70.76L227.24-70.76L227.24-70.76Q229.37-68.86 231.57-67.34L231.57-67.34L231.57-67.34Q233.78-65.82 236.21-64.37L236.21-64.37L236.21-64.37Q238.64-62.93 241.83-61.41L241.83-61.41L240.92-57.30L240.92-57.30Q246.54-61.41 251.10-65.51L251.10-65.51L251.10-65.51Q255.66-69.62 260.53-75.09L260.53-75.09L260.53-75.09Q263.11-72.66 265.24-70.76L265.24-70.76L265.24-70.76Q267.37-68.86 269.57-67.34L269.57-67.34L269.57-67.34Q271.78-65.82 274.21-64.37L274.21-64.37L274.21-64.37Q276.64-62.93 279.83-61.41L279.83-61.41L279.83-61.41Q279.22-59.28 278.84-56.92L278.84-56.92L278.84-56.92Q278.46-54.57 278.24-50.92L278.24-50.92L278.24-50.92Q278.01-47.27 277.86-41.95L277.86-41.95L277.86-41.95Q277.70-36.63 277.70-28.73L277.70-28.73L277.70-28.73Q277.70-22.04 277.78-17.71L277.78-17.71L277.78-17.71Q277.86-13.38 278.01-10.64L278.01-10.64L278.01-10.64Q278.16-7.90 278.46-6.16L278.46-6.16L278.46-6.16Q278.77-4.41 279.07-2.89L279.07-2.89L279.07-2.89Q276.03-1.82 272.92 0L272.92 0L272.92 0Q269.80 1.82 266.68 4.10L266.68 4.10L266.68 4.10Q263.57 6.38 260.83 8.82L260.83 8.82L260.83 8.82Q258.10 11.25 255.97 13.53L255.97 13.53ZM322.85 4.86L322.85 4.86L322.85 4.86Q319.96 2.74 315.70 0.91L315.70 0.91L315.70 0.91Q311.45-0.91 306.96-2.20L306.96-2.20L306.96-2.20Q302.48-3.50 298.30-4.26L298.30-4.26L298.30-4.26Q294.12-5.02 291.38-5.02L291.38-5.02L291.38-5.02Q292.60-6.99 293.51-10.56L293.51-10.56L293.51-10.56Q294.42-14.14 294.96-18.32L294.96-18.32L294.96-18.32Q295.49-22.50 295.72-26.90L295.72-26.90L295.72-26.90Q295.94-31.31 295.94-34.96L295.94-34.96L295.94-34.96Q295.94-44.23 294.80-50.39L294.80-50.39L294.80-50.39Q293.66-56.54 292.60-60.04L292.60-60.04L292.60-60.04Q299.14-61.26 304.53-64.75L304.53-64.75L304.53-64.75Q309.93-68.25 315.25-73.57L315.25-73.57L315.25-73.57Q321.48-72.35 330.60-71.52L330.60-71.52L330.60-71.52Q339.72-70.68 348.69-70.38L348.69-70.38L348.69-70.38Q348.23-67.64 348.23-63.54L348.23-63.54L348.23-63.54Q348.23-60.34 348.54-56.62L348.54-56.62L348.54-56.62Q348.84-52.90 349.30-49.25L349.30-49.25L349.30-49.25Q349.75-45.60 350.51-42.26L350.51-42.26L350.51-42.26Q351.27-38.91 352.18-36.48L352.18-36.48L352.18-36.48Q342.91-35.72 333.34-34.43L333.34-34.43L333.34-34.43Q323.76-33.14 314.64-31.62L314.64-31.62L314.64-31.62Q314.49-27.21 314.03-22.95L314.03-22.95L314.03-22.95Q313.58-18.70 313.27-15.50L313.27-15.50L313.27-15.50Q315.10-14.74 317.91-14.14L317.91-14.14L317.91-14.14Q320.72-13.53 323.91-13.00L323.91-13.00L323.91-13.00Q327.10-12.46 330.14-12.08L330.14-12.08L330.14-12.08Q333.18-11.70 335.31-11.55L335.31-11.55L335.31-11.55Q336.07-16.26 339.04-19.61L339.04-19.61L339.04-19.61Q342-22.95 349.14-25.08L349.14-25.08L349.14-25.08Q348.99-23.26 348.99-21.51L348.99-21.51L348.99-21.51Q348.99-19.76 348.99-18.09L348.99-18.09L348.99-18.09Q348.99-12.92 349.37-9.96L349.37-9.96L349.37-9.96Q349.75-6.99 350.82-4.10L350.82-4.10L350.82-4.10Q347.93-3.80 343.98-2.96L343.98-2.96L343.98-2.96Q340.02-2.13 336.07-0.84L336.07-0.84L336.07-0.84Q332.12 0.46 328.55 1.90L328.55 1.90L328.55 1.90Q324.98 3.34 322.85 4.86ZM313.12-59.89L313.12-59.89L313.12-59.89Q313.88-53.50 314.26-48.64L314.26-48.64L314.26-48.64Q314.64-43.78 314.79-39.67L314.79-39.67L332.58-44.08L332.58-44.08Q331.82-47.12 331.28-50.46L331.28-50.46L331.28-50.46Q330.75-53.81 330.75-57.30L330.75-57.30L330.75-57.30Q327.26-57.30 322.32-57.99L322.32-57.99L322.32-57.99Q317.38-58.67 313.12-59.89ZM424.99-17.18L424.99-17.18L424.99-17.18Q427.73-15.66 430.01-14.44L430.01-14.44L430.01-14.44Q432.29-13.22 434.64-12.24L434.64-12.24L434.64-12.24Q437-11.25 439.74-10.49L439.74-10.49L439.74-10.49Q442.47-9.73 445.97-9.12L445.97-9.12L445.97-9.12Q452.35-12.31 456.15-13.30L456.15-13.30L456.15-13.30Q459.95-14.29 461.17-15.05L461.17-15.05L461.17-15.05Q461.47-29.79 461.70-45.98L461.70-45.98L461.70-45.98Q461.93-62.17 461.93-76.76L461.93-76.76L461.93-76.76Q461.93-80.56 461.93-84.28L461.93-84.28L461.93-84.28Q461.93-88.01 461.62-91.50L461.62-91.50L461.62-91.50Q458.89-93.02 456.61-94.24L456.61-94.24L456.61-94.24Q454.33-95.46 451.97-96.44L451.97-96.44L451.97-96.44Q449.62-97.43 446.96-98.19L446.96-98.19L446.96-98.19Q444.30-98.95 440.80-99.56L440.80-99.56L440.80-99.56Q434.42-96.37 430.54-95.15L430.54-95.15L430.54-95.15Q426.66-93.94 425.45-93.18L425.45-93.18L425.45-93.18Q425.30-89.38 425.14-83.98L425.14-83.98L425.14-83.98Q424.99-78.58 424.92-72.35L424.92-72.35L424.92-72.35Q424.84-66.12 424.84-59.28L424.84-59.28L424.84-59.28Q424.84-52.44 424.84-45.90L424.84-45.90L424.84-45.90Q424.84-39.06 424.92-31.16L424.92-31.16L424.92-31.16Q424.99-23.26 424.99-17.18ZM397.63-55.02L397.63-55.02L397.63-55.02Q399.61-57.15 401.20-60.42L401.20-60.42L401.20-60.42Q402.80-63.69 404.02-67.56L404.02-67.56L404.02-67.56Q405.23-71.44 405.92-75.70L405.92-75.70L405.92-75.70Q406.60-79.95 406.60-84.06L406.60-84.06L406.60-84.06Q406.60-91.05 404.47-97.28L404.47-97.28L404.47-97.28Q402.34-103.51 397.48-106.40L397.48-106.40L397.48-106.40Q402.19-106.70 407.74-107.62L407.74-107.62L407.74-107.62Q413.29-108.53 418.91-109.90L418.91-109.90L418.91-109.90Q424.54-111.26 429.70-112.86L429.70-112.86L429.70-112.86Q434.87-114.46 438.82-116.28L438.82-116.28L438.82-116.28Q443.84-115.52 450.76-113.77L450.76-113.77L450.76-113.77Q457.67-112.02 464.51-110.20L464.51-110.20L464.51-110.20Q471.35-108.38 477.05-106.86L477.05-106.86L477.05-106.86Q482.75-105.34 485.34-105.18L485.34-105.18L485.34-105.18Q483.21-101.69 482.30-96.44L482.30-96.44L482.30-96.44Q481.38-91.20 481.38-85.58L481.38-85.58L481.38-85.58Q481.38-77.06 483.51-68.63L483.51-68.63L483.51-68.63Q485.64-60.19 489.59-54.87L489.59-54.87L489.59-54.87Q485.79-50.16 483.36-42.03L483.36-42.03L483.36-42.03Q480.93-33.90 480.93-25.23L480.93-25.23L480.93-25.23Q480.93-18.24 483.06-12.16L483.06-12.16L483.06-12.16Q485.18-6.08 490.05-3.04L490.05-3.04L490.05-3.04Q485.34-2.74 479.64-1.82L479.64-1.82L479.64-1.82Q473.94-0.91 468.24 0.46L468.24 0.46L468.24 0.46Q462.54 1.82 457.22 3.42L457.22 3.42L457.22 3.42Q451.90 5.02 448.10 6.84L448.10 6.84L448.10 6.84Q443.08 6.23 436.24 4.56L436.24 4.56L436.24 4.56Q429.40 2.89 422.64 1.06L422.64 1.06L422.64 1.06Q415.87-0.76 410.25-2.36L410.25-2.36L410.25-2.36Q404.62-3.95 402.19-4.26L402.19-4.26L402.19-4.26Q404.32-6.23 405.16-10.72L405.16-10.72L405.16-10.72Q405.99-15.20 405.99-20.98L405.99-20.98L405.99-20.98Q405.99-26.30 405.31-32.15L405.31-32.15L405.31-32.15Q404.62-38 403.48-42.94L403.48-42.94L403.48-42.94Q402.34-47.88 400.82-51.22L400.82-51.22L400.82-51.22Q399.30-54.57 397.63-55.02ZM534.28 4.26L532.76 4.26L532.76 4.26Q528.35 1.06 521.82-1.82L521.82-1.82L521.82-1.82Q515.28-4.71 508.29-6.38L508.29-6.38L508.29-6.38Q508.44-8.21 508.59-10.56L508.59-10.56L508.59-10.56Q508.74-12.92 508.82-15.43L508.82-15.43L508.82-15.43Q508.90-17.94 508.97-20.29L508.97-20.29L508.97-20.29Q509.05-22.65 509.05-24.32L509.05-24.32L509.05-24.32Q509.05-38.15 507.00-47.58L507.00-47.58L507.00-47.58Q504.94-57 501.90-62.02L501.90-62.02L497.50-62.93L497.50-65.51L497.50-65.51Q500.08-65.82 503.73-66.65L503.73-66.65L503.73-66.65Q507.38-67.49 510.95-68.63L510.95-68.63L510.95-68.63Q514.52-69.77 517.56-71.06L517.56-71.06L517.56-71.06Q520.60-72.35 522.12-73.57L522.12-73.57L522.12-73.57Q525.77-68.25 527.21-56.09L527.21-56.09L527.21-56.09Q528.66-43.93 528.66-27.51L528.66-27.51L528.66-27.51Q528.66-24.32 528.66-21.05L528.66-21.05L528.66-21.05Q528.66-17.78 528.50-14.29L528.50-14.29L536.10-10.18L537.02-10.18L537.02-10.18Q539.14-13.83 540.74-19.38L540.74-19.38L540.74-19.38Q542.34-24.93 543.48-31.01L543.48-31.01L543.48-31.01Q544.62-37.09 545.22-42.94L545.22-42.94L545.22-42.94Q545.83-48.79 545.83-53.20L545.83-53.20L545.83-53.20Q545.83-59.28 544.54-62.32L544.54-62.32L544.54-62.32Q543.25-65.36 540.66-66.58L540.66-66.58L540.82-69.01L540.82-69.01Q546.74-69.46 552.82-70.60L552.82-70.60L552.82-70.60Q558.90-71.74 564.83-73.57L564.83-73.57L564.83-73.57Q564.53-73.11 564.53-72.50L564.53-72.50L564.53-72.50Q564.53-71.90 564.53-71.14L564.53-71.14L564.53-71.14Q564.53-66.27 565.14-61.94L565.14-61.94L565.14-61.94Q565.74-57.61 567.87-55.33L567.87-55.33L553.13-10.34L534.28 4.26ZM607.39 4.86L607.39 4.86L607.39 4.86Q604.50 2.74 600.25 0.91L600.25 0.91L600.25 0.91Q595.99-0.91 591.51-2.20L591.51-2.20L591.51-2.20Q587.02-3.50 582.84-4.26L582.84-4.26L582.84-4.26Q578.66-5.02 575.93-5.02L575.93-5.02L575.93-5.02Q577.14-6.99 578.06-10.56L578.06-10.56L578.06-10.56Q578.97-14.14 579.50-18.32L579.50-18.32L579.50-18.32Q580.03-22.50 580.26-26.90L580.26-26.90L580.26-26.90Q580.49-31.31 580.49-34.96L580.49-34.96L580.49-34.96Q580.49-44.23 579.35-50.39L579.35-50.39L579.35-50.39Q578.21-56.54 577.14-60.04L577.14-60.04L577.14-60.04Q583.68-61.26 589.08-64.75L589.08-64.75L589.08-64.75Q594.47-68.25 599.79-73.57L599.79-73.57L599.79-73.57Q606.02-72.35 615.14-71.52L615.14-71.52L615.14-71.52Q624.26-70.68 633.23-70.38L633.23-70.38L633.23-70.38Q632.78-67.64 632.78-63.54L632.78-63.54L632.78-63.54Q632.78-60.34 633.08-56.62L633.08-56.62L633.08-56.62Q633.38-52.90 633.84-49.25L633.84-49.25L633.84-49.25Q634.30-45.60 635.06-42.26L635.06-42.26L635.06-42.26Q635.82-38.91 636.73-36.48L636.73-36.48L636.73-36.48Q627.46-35.72 617.88-34.43L617.88-34.43L617.88-34.43Q608.30-33.14 599.18-31.62L599.18-31.62L599.18-31.62Q599.03-27.21 598.58-22.95L598.58-22.95L598.58-22.95Q598.12-18.70 597.82-15.50L597.82-15.50L597.82-15.50Q599.64-14.74 602.45-14.14L602.45-14.14L602.45-14.14Q605.26-13.53 608.46-13.00L608.46-13.00L608.46-13.00Q611.65-12.46 614.69-12.08L614.69-12.08L614.69-12.08Q617.73-11.70 619.86-11.55L619.86-11.55L619.86-11.55Q620.62-16.26 623.58-19.61L623.58-19.61L623.58-19.61Q626.54-22.95 633.69-25.08L633.69-25.08L633.69-25.08Q633.54-23.26 633.54-21.51L633.54-21.51L633.54-21.51Q633.54-19.76 633.54-18.09L633.54-18.09L633.54-18.09Q633.54-12.92 633.92-9.96L633.92-9.96L633.92-9.96Q634.30-6.99 635.36-4.10L635.36-4.10L635.36-4.10Q632.47-3.80 628.52-2.96L628.52-2.96L628.52-2.96Q624.57-2.13 620.62-0.84L620.62-0.84L620.62-0.84Q616.66 0.46 613.09 1.90L613.09 1.90L613.09 1.90Q609.52 3.34 607.39 4.86ZM597.66-59.89L597.66-59.89L597.66-59.89Q598.42-53.50 598.80-48.64L598.80-48.64L598.80-48.64Q599.18-43.78 599.34-39.67L599.34-39.67L617.12-44.08L617.12-44.08Q616.36-47.12 615.83-50.46L615.83-50.46L615.83-50.46Q615.30-53.81 615.30-57.30L615.30-57.30L615.30-57.30Q611.80-57.30 606.86-57.99L606.86-57.99L606.86-57.99Q601.92-58.67 597.66-59.89ZM671.99-69.16L671.99-48.79L671.99-48.79Q675.49-54.42 678.53-60.65L678.53-60.65L678.53-60.65Q681.57-66.88 684.15-73.87L684.15-73.87L684.15-73.87Q687.04-72.05 692.36-70.15L692.36-70.15L692.36-70.15Q697.68-68.25 704.06-66.73L704.06-66.73L704.06-66.73Q703.30-60.34 701.33-55.10L701.33-55.10L701.33-55.10Q699.35-49.86 696.31-46.36L696.31-46.36L686.13-51.68L684.30-51.68L671.99-34.35L671.99-13.38L671.99-13.38Q671.99-8.06 673.89-5.70L673.89-5.70L673.89-5.70Q675.79-3.34 680.66-2.58L680.66-2.58L680.66 0L648.13 0L648.13-2.28L648.13-2.28Q652.23-3.80 652.23-12.01L652.23-12.01L652.23-65.06L646.61-67.49L646.61-69.16L646.61-69.16Q651.93-69.92 658.16-71.21L658.16-71.21L658.16-71.21Q664.39-72.50 669.26-73.72L669.26-73.72L671.99-69.16Z" fill="url(#editing-outline-gradient)"></path></g></g><style>text {
  font-size: 64px;
  font-family: Arial Black;
  dominant-baseline: central;
  text-anchor: middle;
}</style></svg>